<svg height="512pt" viewBox="0 0 512 512" width="512pt" xmlns="http://www.w3.org/2000/svg"><path d="m436.429688 279.710938c-14.675782-5.96875-29.105469-6.855469-42.035157-5.238282.78125-6.109375 1.191407-12.335937 1.199219-18.660156.003906-5.398438-.292969-10.726562-.851562-15.972656 13.027343 1.480468 27.714843.351562 42.898437-6.050782 49.53125-20.886718 55.007813-75.359374 55.007813-75.359374s-43.640626-33.765626-92.363282-13.222657c-14 5.90625-24.539062 14.957031-32.433594 24.761719-6.765624-9.28125-14.609374-17.6875-23.332031-25.035156 9.53125-8.015625 18.328125-18.738282 24.148438-33.050782 20.257812-49.792968-14.390625-92.183593-14.390625-92.183593s-54.734375 6.980469-74.660156 55.960937c-5.351563 13.15625-6.613282 26.113282-5.652344 37.972656-5.835938-.769531-11.78125-1.167968-17.816406-1.175781-5.425782-.003906-10.773438.320313-16.035157.929688.835938-12.011719-.652343-25.273438-6.414062-38.933594-20.886719-49.535156-75.363281-55.007813-75.363281-55.007813s-33.765626 43.640626-13.21875 92.359376c5.746093 13.632812 14.480468 23.972656 23.984374 31.796874-8.824218 7.214844-16.777343 15.5-23.675781 24.671876-8.074219-9.800782-18.96875-18.886719-33.632812-24.851563-49.792969-20.253906-92.183594 14.394531-92.183594 14.394531s6.980469 54.734375 55.960937 74.65625c14.636719 5.953125 29.027344 6.851563 41.929688 5.25-.710938 5.835938-1.085938 11.777344-1.089844 17.804688-.007812 5.695312.320313 11.304687.945313 16.828125-13.050781-1.496094-27.773438-.378907-42.992188 6.039062-49.535156 20.886719-55.007812 75.363281-55.007812 75.363281s43.640625 33.761719 92.359375 13.21875c14.199218-5.988281 24.828125-15.207031 32.757812-25.171874 6.824219 9.285156 14.726563 17.6875 23.511719 25.019531-9.726563 8.058593-18.726563 18.910156-24.652344 33.476562-20.257812 49.792969 14.394531 92.183594 14.394531 92.183594s54.730469-6.980469 74.65625-55.960937c5.480469-13.472657 6.675782-26.738282 5.582032-38.824219 5.859375.773437 11.828125 1.175781 17.890625 1.183593 5.445312.003907 10.816406-.320312 16.101562-.9375-.96875 12.238282.449219 25.800782 6.34375 39.789063 20.890625 49.53125 75.363281 55.007813 75.363281 55.007813s33.765626-43.644532 13.222657-92.363282c-5.851563-13.875-14.792969-24.34375-24.5-32.21875 8.894531-7.195312 16.90625-15.476562 23.863281-24.652344 8.105469 9.957032 19.09375 19.207032 33.957031 25.253907 49.792969 20.257812 92.1875-14.390625 92.1875-14.390625s-6.984375-54.738282-55.964843-74.660156zm0 0" fill="#f7ca00"/><path d="m306.027344 79.96875c0 52.875-48.066406 79.96875-48.066406 79.96875s-48.070313-28.839844-48.070313-79.96875c0-52.875 48.070313-79.96875 48.070313-79.96875s48.066406 26.210938 48.066406 79.96875zm0 0" fill="#ffe469"/><path d="m257.960938 0s-11.078126 6.246094-22.601563 18.589844c12.386719 13.253906 25.171875 33.652344 25.171875 61.378906 0 27.164062-12.691406 47.523438-25.027344 60.902344 11.46875 12.464844 22.457032 19.0625 22.457032 19.0625s48.066406-27.09375 48.066406-79.96875c0-53.753906-48.066406-79.964844-48.066406-79.964844zm0 0" fill="#ffda30"/><g fill="#ffe469"><path d="m166.902344 96.152344c37.386718 37.386718 22.554687 90.535156 22.554687 90.535156s-54.382812 13.59375-90.535156-22.558594c-37.386719-37.386718-22.554687-90.535156-22.554687-90.535156s52.523437-15.453125 90.535156 22.558594zm0 0"/><path d="m79.96875 205.972656c52.875 0 79.96875 48.066406 79.96875 48.066406s-28.839844 48.070313-79.96875 48.070313c-52.875 0-79.96875-48.070313-79.96875-48.070313s26.210938-48.066406 79.96875-48.066406zm0 0"/><path d="m96.152344 345.097656c37.386718-37.386718 90.535156-22.554687 90.535156-22.554687s13.59375 54.382812-22.558594 90.535156c-37.386718 37.386719-90.535156 22.554687-90.535156 22.554687s-15.453125-52.523437 22.558594-90.535156zm0 0"/><path d="m205.972656 432.03125c0-52.875 48.066406-79.96875 48.066406-79.96875s48.070313 28.839844 48.070313 79.96875c0 52.875-48.070313 79.96875-48.070313 79.96875s-48.066406-26.210938-48.066406-79.96875zm0 0"/></g><path d="m254.039062 352.0625s-11.363281 6.40625-23.039062 19.066406c12.519531 13.609375 25.613281 34.21875 25.613281 60.902344 0 27.492188-12.996093 48.007812-25.472656 61.375 11.628906 12.445312 22.898437 18.589844 22.898437 18.589844s48.070313-27.089844 48.070313-79.964844c0-51.125-48.070313-79.96875-48.070313-79.96875zm0 0" fill="#ffda30"/><path d="m345.097656 415.847656c-37.386718-37.386718-22.554687-90.535156-22.554687-90.535156s54.382812-13.59375 90.535156 22.558594c37.386719 37.386718 22.554687 90.535156 22.554687 90.535156s-52.523437 15.453125-90.535156-22.558594zm0 0" fill="#ffe469"/><path d="m413.078125 347.871094c-32.820313-32.820313-80.65625-24.644532-89.203125-22.855469 14.625 2.984375 30.398438 9.546875 43.707031 22.855469 37.386719 37.386718 22.554688 90.535156 22.554688 90.535156s-.941407.273438-2.644531.660156c25.960937 5.859375 48.140624-.660156 48.140624-.660156s14.832032-53.148438-22.554687-90.535156zm0 0" fill="#ffda30"/><path d="m432.03125 306.027344c-52.875 0-79.96875-48.066406-79.96875-48.066406s28.839844-48.070313 79.96875-48.070313c52.875 0 79.96875 48.070313 79.96875 48.070313s-26.210938 48.066406-79.96875 48.066406zm0 0" fill="#ffe469"/><path d="m432.03125 209.890625c-8.046875 0-15.539062 1.191406-22.453125 3.199219 37.6875 10.742187 56.925781 44.871094 56.925781 44.871094s-18.757812 34.390624-57.074218 44.992187c6.917968 1.929687 14.453124 3.074219 22.601562 3.074219 53.757812 0 79.96875-48.066406 79.96875-48.066406s-27.09375-48.070313-79.96875-48.070313zm0 0" fill="#ffda30"/><path d="m415.847656 166.902344c-37.386718 37.386718-90.535156 22.554687-90.535156 22.554687s-13.59375-54.382812 22.558594-90.535156c37.386718-37.386719 90.535156-22.554687 90.535156-22.554687s15.453125 52.523437-22.558594 90.535156zm0 0" fill="#ffe469"/><path d="m438.40625 76.367188s-22.050781-6.152344-47.738281-.539063c1.449219.316406 2.238281.539063 2.238281.539063s15.457031 52.523437-22.554688 90.535156c-13.304687 13.304687-28.605468 19.992187-42.800781 23.09375 10.460938 2.296875 55.457031 9.746094 88.296875-23.09375 38.011719-38.011719 22.558594-90.535156 22.558594-90.535156zm0 0" fill="#ffda30"/><path d="m368.925781 255.671875c0-62.53125-50.558593-113.226563-112.925781-113.226563s-112.925781 50.695313-112.925781 113.226563 50.558593 113.222656 112.925781 113.222656 112.925781-50.691406 112.925781-113.222656zm0 0" fill="#89c8fd"/><path d="m256 142.445312c-7.792969 0-15.402344.792969-22.75 2.300782 51.464844 10.554687 90.179688 56.207031 90.179688 110.925781s-38.714844 100.371094-90.179688 110.925781c7.347656 1.503906 14.957031 2.296875 22.75 2.296875 62.367188 0 112.925781-50.691406 112.925781-113.222656s-50.558593-113.226563-112.925781-113.226563zm0 0" fill="#60b6ff"/><path d="m241.320312 186.449219c-17.394531 10.902343-30.441406 28.34375-20.65625 47.964843 9.785157 19.621094 31.53125 11.992188 51.644532 9.265626 20.113281-2.726563 4.890625 59.410156 16.851562 74.671874 11.957032 15.261719 45.664063-15.261718 42.402344-34.882812-4.828125-29.054688-6.523438-39.242188 32.617188-59.957031l.105468-.039063c-13.195312-44.671875-53.128906-77.820312-101.214844-80.800781l-.003906.171875s-4.347656 32.703125-21.746094 43.605469zm0 0" fill="#baeb6c"/><path d="m326.753906 167.429688c.003906.007812.011719.011718.019532.019531-.007813-.007813-.015626-.011719-.019532-.019531zm0 0" fill="#baeb6c"/><path d="m340.558594 180.640625c.003906 0 .003906.003906.007812.003906-.003906-.003906-.003906-.003906-.007812-.003906zm0 0" fill="#baeb6c"/><path d="m180.980469 306.90625c-5.222657-7.96875 9.242187-26.707031 12.503906-40.878906s-16.308594-13.082032-22.289063-17.988282c-5.976562-4.902343-14.132812-26.160156-20.113281-31.066406l-.957031-.753906c-4.554688 12.285156-7.050781 25.574219-7.050781 39.453125 0 37.425781 18.113281 70.601563 46.023437 91.214844l.035156-2.371094c.003907 0 4.351563-18.53125-8.152343-37.609375zm0 0" fill="#baeb6c"/><path d="m263.070312 142.675781-.003906.167969s-.644531 4.8125-2.410156 11.355469c37.203125 18.519531 62.773438 57 62.773438 101.472656 0 24.742187-7.9375 47.617187-21.367188 66.246094 14.246094-3.628907 31.902344-23.996094 29.5-38.449219-4.828125-29.050781-6.523438-39.242188 32.617188-59.957031l.105468-.035157c-13.195312-44.675781-53.128906-77.824218-101.214844-80.800781zm0 0" fill="#96d629"/></svg>